<svg xmlns="http://www.w3.org/2000/svg" width="12" height="12" viewBox="0 0 12 12">
  <path fill="#7A848F" d="M8.01375775,1.37293937 C6.18305085,-0.457646456 3.20343944,-0.457646456 1.37273253,1.37293937 C-0.457577511,3.20392202 -0.457577511,6.18293953 1.37273253,8.01392219 C3.00302604,9.64371104 5.54212484,9.8183171 7.37164117,8.54567701 C7.41013642,8.72782288 7.49823894,8.90163528 7.63991732,9.04330429 L10.3060107,11.7092214 C10.6945349,12.0969262 11.3223646,12.0969262 11.7089045,11.7092214 C12.0970318,11.3211197 12.0970318,10.6933316 11.7089045,10.3064204 L9.04281108,7.63970965 C8.90192642,7.49923114 8.72770566,7.41073761 8.54554775,7.37224491 C9.81906573,5.54245275 9.64444812,3.00391872 8.01375775,1.37293937 Z M7.1720215,7.1722416 C5.80524184,8.53893087 3.58085159,8.53893087 2.21446879,7.1722416 C0.848482844,5.80555234 0.848482844,3.58170605 2.21446879,2.21501678 C3.58085159,0.848724351 5.80524184,0.848724351 7.1720215,2.21501678 C8.53880116,3.58170605 8.53880116,5.80555234 7.1720215,7.1722416 Z"/>
</svg>
