<svg xmlns="http://www.w3.org/2000/svg" width="9" height="9" viewBox="0 0 9 9">
  <path fill="#7A848F" d="M4.5,3.5 L7.5,3.5 C7.77614237,3.5 8,3.72385763 8,4 C8,4.27614237 7.77614237,4.5 7.5,4.5 L4.5,4.5 L4.5,7.5 C4.5,7.77614237 4.27614237,8 4,8 C3.72385763,8 3.5,7.77614237 3.5,7.5 L3.5,4.5 L0.5,4.5 C0.223857625,4.5 0,4.27614237 0,4 C0,3.72385763 0.223857625,3.5 0.5,3.5 L3.5,3.5 L3.5,0.5 C3.5,0.223857625 3.72385763,5.07265313e-17 4,0 C4.27614237,-5.07265313e-17 4.5,0.223857625 4.5,0.5 L4.5,3.5 Z" transform="translate(.6 .5)"/>
</svg>
